<?xml version="1.0" encoding="UTF-8" standalone="no"?>
<svg
   xmlns:dc="http://purl.org/dc/elements/1.1/"
   xmlns:cc="http://creativecommons.org/ns#"
   xmlns:rdf="http://www.w3.org/1999/02/22-rdf-syntax-ns#"
   xmlns:svg="http://www.w3.org/2000/svg"
   xmlns="http://www.w3.org/2000/svg"
   xmlns:xlink="http://www.w3.org/1999/xlink"
   xmlns:sodipodi="http://sodipodi.sourceforge.net/DTD/sodipodi-0.dtd"
   xmlns:inkscape="http://www.inkscape.org/namespaces/inkscape"
   sodipodi:docname="dessin.svg"
   inkscape:version="1.1-dev (50319a7, 2020-04-13)"
   id="svg8"
   version="1.1"
   viewBox="0 0 54.881542 40.239353"
   height="40.239353mm"
   width="54.881542mm">
  <defs
     id="defs2">
    <inkscape:path-effect
       end_linecap_type="zerowidth"
       scale_width="1"
       miter_limit="4"
       linejoin_type="extrp_arc"
       start_linecap_type="zerowidth"
       interpolator_beta="0.2"
       interpolator_type="CubicBezierJohan"
       sort_points="true"
       offset_points="4,0.1322915"
       lpeversion="1"
       is_visible="true"
       id="path-effect32"
       effect="powerstroke" />
    <inkscape:path-effect
       end_linecap_type="zerowidth"
       scale_width="1"
       miter_limit="4"
       linejoin_type="extrp_arc"
       start_linecap_type="zerowidth"
       interpolator_beta="0.2"
       interpolator_type="CubicBezierJohan"
       sort_points="true"
       offset_points="4,0.1322915"
       lpeversion="1"
       is_visible="true"
       id="path-effect28"
       effect="powerstroke" />
    <inkscape:path-effect
       end_linecap_type="zerowidth"
       scale_width="1"
       miter_limit="4"
       linejoin_type="extrp_arc"
       start_linecap_type="zerowidth"
       interpolator_beta="0.2"
       interpolator_type="CubicBezierJohan"
       sort_points="true"
       offset_points="6,0.1322915"
       lpeversion="1"
       is_visible="true"
       id="path-effect24"
       effect="powerstroke" />
    <inkscape:path-effect
       end_linecap_type="zerowidth"
       scale_width="1"
       miter_limit="4"
       linejoin_type="extrp_arc"
       start_linecap_type="zerowidth"
       interpolator_beta="0.2"
       interpolator_type="CubicBezierJohan"
       sort_points="true"
       offset_points="7,0.1322915"
       lpeversion="1"
       is_visible="true"
       id="path-effect20"
       effect="powerstroke" />
    <inkscape:path-effect
       end_linecap_type="zerowidth"
       scale_width="1"
       miter_limit="4"
       linejoin_type="extrp_arc"
       start_linecap_type="zerowidth"
       interpolator_beta="0.2"
       interpolator_type="CubicBezierJohan"
       sort_points="true"
       offset_points="8,0.1322915"
       lpeversion="1"
       is_visible="true"
       id="path-effect16"
       effect="powerstroke" />
    <inkscape:path-effect
       end_linecap_type="zerowidth"
       scale_width="1"
       miter_limit="4"
       linejoin_type="extrp_arc"
       start_linecap_type="zerowidth"
       interpolator_beta="0.2"
       interpolator_type="CubicBezierJohan"
       sort_points="true"
       offset_points="3,0.1322915"
       lpeversion="1"
       is_visible="true"
       id="path-effect12"
       effect="powerstroke" />
    <clipPath
       id="clipPath87"
       clipPathUnits="userSpaceOnUse">
      <use
         height="100%"
         width="100%"
         id="use89"
         xlink:href="#g83"
         y="0"
         x="0" />
    </clipPath>
    <clipPath
       id="clipPath105"
       clipPathUnits="userSpaceOnUse">
      <use
         height="100%"
         width="100%"
         id="use107"
         xlink:href="#g101"
         y="0"
         x="0" />
    </clipPath>
  </defs>
  <sodipodi:namedview
     inkscape:snap-grids="true"
     inkscape:snap-page="false"
     inkscape:window-maximized="1"
     inkscape:window-y="-4"
     inkscape:window-x="1912"
     inkscape:window-height="1017"
     inkscape:window-width="1920"
     showgrid="false"
     inkscape:current-layer="layer1"
     inkscape:document-units="mm"
     inkscape:cy="47.53247"
     inkscape:cx="-9.0758238"
     inkscape:zoom="1.4"
     inkscape:pageshadow="2"
     inkscape:pageopacity="0.0"
     borderopacity="1.0"
     bordercolor="#666666"
     pagecolor="#ffffff"
     id="base" />
  <metadata
     id="metadata5">
    <rdf:RDF>
      <cc:Work
         rdf:about="">
        <dc:format>image/svg+xml</dc:format>
        <dc:type
           rdf:resource="http://purl.org/dc/dcmitype/StillImage" />
        <dc:title></dc:title>
      </cc:Work>
    </rdf:RDF>
  </metadata>
  <g
     transform="translate(-35.893218,-86.420462)"
     id="layer1"
     inkscape:groupmode="layer"
     inkscape:label="Calque 1">
    <g
       transform="translate(-2.1733631,-3.1183036)"
       clip-path="url(#clipPath105)"
       id="g103">
      <g
         id="g101"
         inkscape:label="Clip">
        <path
           style="fill:#000000;fill-rule:nonzero;stroke:none;stroke-width:0.264583px;stroke-linecap:butt;stroke-linejoin:miter;stroke-opacity:1"
           d="m 50.138542,97.895832 c 0,6.695338 0,17.729678 0,30.994048 a 0.1322915,0.1322915 0.76376036 0 0 0.128764,0.13224 c 8.646185,0.23057 18.328326,0.48876 28.348216,0.75595 a 0.13229293,0.13229022 89.060488 0 0 0.135583,-0.1401 C 78.128143,119.17221 77.485598,108.37746 76.861224,97.887971 A 0.1322915,0.1322915 4.3441484 0 0 76.756885,97.766477 C 74.892382,97.366941 73.085748,96.979806 71.465218,96.63255 a 0.1322915,0.1322915 3.0012134 0 0 -0.159264,0.143386 c 0.921399,8.638114 1.948084,18.263294 3.00787,28.198794 -5.805032,-0.12094 -11.932496,-0.2486 -17.876695,-0.37244 -1.064231,-9.57808 -2.092429,-18.83186 -3.011005,-27.099043 a 0.1322915,0.1322915 83.267397 0 0 -0.147891,-0.116661 c -1.294085,0.161761 -2.370605,0.296326 -3.023809,0.377976 z m 0.1487,0.13127 c 0.63068,-0.07883 1.655988,-0.206998 2.890728,-0.361341 0.9185,8.266499 1.945928,17.513359 3.008999,27.080989 a 0.13228996,0.13229253 87.426728 0 0 0.128727,0.11765 c 5.980433,0.1246 12.148865,0.25311 18.142856,0.37798 a 0.1322915,0.1322915 87.552487 0 0 0.134301,-0.14629 c -1.058004,-9.91879 -2.083399,-19.53188 -3.004431,-28.16655 1.413376,0.302866 3.185005,0.6825 5.014663,1.074569 0.615535,10.340981 1.255052,21.084861 1.875336,31.505631 -9.826024,-0.26203 -19.461797,-0.51898 -28.075296,-0.74867 0,-13.20699 0,-24.19158 0,-30.865238 z"
           id="path14"
           inkscape:path-effect="#path-effect16"
           inkscape:original-d="m 50.270833,97.895832 v 30.994048 l 28.348214,0.75595 -1.889881,-31.749998 -5.291667,-1.133927 3.023809,28.348215 -18.142857,-0.37798 -3.023809,-27.214284 z" />
        <path
           style="fill:#000000;fill-rule:nonzero;stroke:none;stroke-width:0.264583px;stroke-linecap:butt;stroke-linejoin:miter;stroke-opacity:1"
           d="m 50.270833,98.02812 c 5.547855,0 15.08413,0 26.458333,0 v 10e-7 c 4.070383,0 8.611512,10e-7 13.229166,2e-6 a 0.13229144,0.1322915 15.85073 0 0 0.112553,-0.06277 c 0.0011,-0.0017 0.498114,-0.806344 1.079493,-1.915709 v 0 c 0.290779,-0.554853 0.602182,-1.185126 0.88259,-1.828285 v 0 c 0.28123,-0.645042 0.531468,-1.303443 0.698769,-1.912896 l 1e-6,-4e-6 c 0.08399,-0.305982 0.147382,-0.600683 0.18319,-0.876066 v 0 c 0.03589,-0.27604 0.04442,-0.535176 0.01699,-0.768258 v 0 c -0.02761,-0.234663 -0.0918,-0.445902 -0.204729,-0.622215 v 0 c -0.05678,-0.08864 -0.125465,-0.167645 -0.20692,-0.235319 v 0 c -0.08167,-0.06785 -0.174978,-0.123324 -0.279884,-0.165786 v 0 c -0.210338,-0.08514 -0.463834,-0.116989 -0.763151,-0.09561 v 0 c -0.300591,0.02147 -0.650517,0.09706 -1.054065,0.230702 v 0 c -0.815972,0.270225 -1.862224,0.781581 -3.179324,1.581249 l -8e-6,4e-6 c -0.655634,0.398063 -1.419621,0.754674 -2.273527,1.07352 v 0 c -0.861958,0.321853 -1.8147,0.604917 -2.838917,0.853289 v 0 c -2.081245,0.504702 -4.458855,0.866469 -6.974636,1.119794 v 0 c -5.221601,0.525785 -11.1074,0.591344 -16.378613,0.47774 v 0 C 48.427773,94.658433 38.187556,93.606324 38.189778,93.606564 l -0.123197,0.206477 c 1.334062,1.940454 2.757101,4.010329 4.157738,6.04762 a 0.13229152,0.1322915 66.901046 0 0 0.135817,0.0546 c 3.826056,-0.791599 7.588706,-1.570079 10.961309,-2.26786 a 0.1322915,0.13229151 35.592823 0 0 -0.04321,-0.260818 c -1.299908,0.162488 -2.389768,0.29872 -3.023809,0.377975 z m 0.01641,-0.001 c 0.63404,-0.07926 1.7239,-0.215487 3.023809,-0.377975 l -0.04321,-0.260818 c -3.347319,0.69255 -7.078858,1.464593 -10.875269,2.250059 -1.29448,-1.88288 -2.659371,-3.868177 -3.946434,-5.740268 1.721308,0.169631 10.976098,1.046413 20.32631,1.247926 v 0 c 5.27602,0.113707 11.173882,0.04832 16.410822,-0.479011 v 0 c 2.523259,-0.254078 4.913672,-0.617438 7.010483,-1.125914 v 0 c 1.032121,-0.25029 1.995262,-0.536259 2.869114,-0.862553 v 0 c 0.865434,-0.32315 1.645185,-0.686555 2.318288,-1.095224 l 7e-6,-5e-6 c 1.309254,-0.794903 2.336194,-1.294951 3.125191,-1.556242 v 0 c 0.389711,-0.129061 0.71733,-0.198503 0.989737,-0.21796 v 0 c 0.270738,-0.01934 0.482146,0.01102 0.645031,0.07695 v 0 c 0.08088,0.03274 0.150405,0.07447 0.210073,0.12404 v 0 c 0.05951,0.04944 0.110371,0.107648 0.153202,0.174517 v 0 c 0.08559,0.133631 0.14049,0.304155 0.164756,0.510422 v 0 c 0.02416,0.20536 0.01742,0.441661 -0.0166,0.703227 v 0 c -0.03385,0.260313 -0.09431,0.542697 -0.175961,0.840144 v 3e-6 c -0.162769,0.592942 -0.407802,1.238741 -0.686159,1.877195 v 0 c -0.277208,0.635818 -0.58565,1.260215 -0.874408,1.811211 v 0 c -0.577003,1.101016 -1.071324,1.901231 -1.070247,1.899488 a 0.13229144,0.1322915 15.85073 0 0 0.112553,-0.06277 c -4.617654,-10e-7 -9.158783,-2e-6 -13.229166,-3e-6 v 0 c -11.374203,0 -20.910478,0 -26.458333,0 z"
           id="path18"
           inkscape:path-effect="#path-effect20"
           inkscape:original-d="m 50.270833,97.895829 h 26.458333 l 13.229166,3e-6 c 0,0 7.9375,-12.851188 -2.645833,-6.425594 -10.583333,6.425591 -49.136905,2.267855 -49.136905,2.267855 l 4.157739,6.047621 10.961309,-2.26786 z" />
        <path
           style="fill:#000000;fill-rule:nonzero;stroke:none;stroke-width:0.264583px;stroke-linecap:butt;stroke-linejoin:miter;stroke-opacity:1"
           d="m 64.388242,125.86607 c 0,-0.0323 -0.0035,-0.069 -0.0094,-0.10849 l 0,0 c -0.0058,-0.0393 -0.01424,-0.0841 -0.02513,-0.13403 l -10e-7,0 c -0.02126,-0.0975 -0.05256,-0.21803 -0.09376,-0.3615 l -1e-6,-1e-5 c -0.079,-0.27513 -0.195437,-0.63829 -0.349842,-1.09086 v 0 c -0.287667,-0.84316 -0.704249,-1.9882 -1.243111,-3.41897 l -2e-6,-1e-5 c -0.970837,-2.57774 -2.287823,-5.94805 -3.768807,-9.67604 v 0 c -2.289114,-5.76225 -4.959807,-12.327958 -5.413922,-13.443315 0.760026,-0.07167 1.79722,-0.169481 2.88373,-0.271941 2.966403,9.005916 6.088999,18.486016 9.21215,27.967816 -1.747,0.52661 -3.47338,1.04701 -4.347136,1.31039 v 0 c 0.596942,-0.17994 2.387765,-0.71976 2.984706,-0.8997 z m -0.09411,0.12666 c -0.596942,0.17994 -2.387765,0.71976 -2.984706,0.8997 v 0 c 0.895411,-0.26991 2.686235,-0.80973 4.477059,-1.34955 l 0.129923,-0.0392 -0.04246,-0.1289 C 62.736648,115.85006 59.599344,106.3253 56.586339,97.177904 l -0.03301,-0.100228 -0.105058,0.0099 c -1.124702,0.106061 -2.198596,0.207331 -3.166046,0.298564 l -0.177442,0.01673 0.06739,0.164997 c -8.9e-5,-2.17e-4 2.96978,7.286683 5.480178,13.605963 v 0 c 1.480773,3.72746 2.79709,7.09609 3.767093,9.67162 l 3e-6,0 c 0.538487,1.42978 0.953959,2.57187 1.240305,3.41116 v 0 c 0.153786,0.45075 0.268669,0.80931 0.345945,1.07844 l 0,0 c 0.04033,0.14048 0.06997,0.25501 0.08956,0.34485 l 10e-7,0 c 0.01002,0.046 0.01721,0.0845 0.02187,0.11621 l 0,0 c 0.0048,0.0327 0.0065,0.0554 0.0065,0.0699 z"
           id="path22"
           inkscape:path-effect="#path-effect24"
           inkscape:original-d="m 64.255951,125.86607 c 0,-1.5119 -10.961309,-28.348216 -10.961309,-28.348216 v 0 0 l 3.166046,-0.298564 9.287616,28.19693 z" />
        <path
           style="fill:#000000;fill-rule:nonzero;stroke:none;stroke-width:0.264583px;stroke-linecap:butt;stroke-linejoin:miter;stroke-opacity:1"
           d="m 60.142837,97.525464 c 1.950308,6.338506 5.012468,16.290526 8.552624,27.796036 l 0.02873,0.0934 h 0.09771 c 0.500561,0 1.05209,0 1.603619,0 h 0.17396 l -0.04648,-0.16763 c -2.688701,-9.69771 -5.377402,-19.39541 -7.817636,-28.196941 l -0.03196,-0.115253 -0.117881,0.02021 c -0.96801,0.165945 -1.805319,0.309484 -2.338607,0.400905 z m 0.148794,0.09148 c 0.511517,-0.08769 1.302742,-0.223327 2.220726,-0.380696 2.39422,8.635558 5.066004,18.272248 7.739204,27.914048 -0.341913,0 -0.857786,0 -1.331952,0 -3.527989,-11.46597 -6.57886,-21.3813 -8.52389,-27.702646 z"
           id="path26"
           inkscape:path-effect="#path-effect28"
           inkscape:original-d="m 60.269278,97.486559 8.552624,27.796031 h 1.603619 L 62.607885,97.085654 Z" />
        <path
           style="fill:#800080;fill-rule:nonzero;stroke:none;stroke-width:0.264583px;stroke-linecap:butt;stroke-linejoin:miter;stroke-opacity:1"
           d="m 72.892068,125.31576 c -1.365377,-5.1909 -4.238902,-16.11547 -7.371189,-28.023805 0.897153,0.03662 2.040632,0.08329 2.992259,0.122134 1.703063,8.114241 3.809091,18.148421 5.789646,27.584781 -0.665585,0.0938 -1.263624,0.17816 -1.557125,0.21954 z m -0.109471,0.16465 c 0.313955,-0.0443 0.976373,-0.13767 1.69718,-0.23929 a 0.1322915,0.1322915 80.060513 0 0 0.111002,-0.15817 c -1.988998,-9.47659 -4.107204,-19.56878 -5.839857,-27.824016 a 0.1322915,0.1322915 85.261122 0 0 -0.124076,-0.105007 c -0.971393,-0.03965 -2.158942,-0.08812 -3.274052,-0.133636 a 0.1322915,0.1322915 83.800047 0 0 -0.133335,0.165833 c 3.149951,11.975486 6.044738,22.980896 7.416729,28.196936 z"
           id="path30"
           inkscape:path-effect="#path-effect32"
           inkscape:original-d="m 72.764128,125.34941 -7.416729,-28.196938 3.274052,0.133636 5.839857,27.824012 z" />
        <g
           id="g85"
           clip-path="url(#clipPath87)">
          <g
             inkscape:label="Clip"
             id="g83">
            <g
               id="g51">
              <g
                 id="g37">
                <path
                   transform="scale(0.26458333)"
                   id="path34"
                   d="m 239.46399,488.37055 c -25.53572,-0.67212 -47.11161,-1.30333 -47.94643,-1.40269 l -1.51786,-0.18067 V 428.73465 370.6821 l -0.80357,0.20105 c -1.39395,0.34875 -28.57257,5.94781 -28.87154,5.94781 -0.46861,0 -15.39292,-21.94161 -15.01093,-22.06894 0.19349,-0.0645 5.06361,0.29179 10.82249,0.79174 33.72362,2.9277 58.71183,3.96623 88.32784,3.67096 19.2352,-0.19177 24.50837,-0.41002 36.78571,-1.52253 22.51219,-2.03992 38.11847,-5.75676 48.21429,-11.48286 9.21172,-5.22466 13.30998,-6.94987 16.6717,-7.01814 1.68047,-0.0341 2.18462,0.10514 2.93606,0.81109 1.98677,1.86646 2.02139,4.41422 0.14123,10.39011 -1.16846,3.71382 -4.5877,11.10886 -7.44513,16.10212 l -1.82183,3.18359 -25.77673,0.0486 c -14.1772,0.0267 -25.45273,0.11335 -25.05674,0.19246 0.70125,0.14008 0.81088,1.67934 4.2125,59.14779 1.92088,32.45218 3.48528,59.36558 3.47644,59.80754 -0.016,0.79964 -0.0427,0.80334 -5.4625,0.75581 -2.99554,-0.0263 -26.33929,-0.59767 -51.875,-1.26979 z m 40,-15.04843 c 1.559,-0.2151 1.79869,-0.3594 1.88798,-1.13663 0.0562,-0.48963 -2.3143,-23.5266 -5.26786,-51.19326 -2.95357,-27.66666 -5.37012,-50.52827 -5.37012,-50.80357 0,-0.4071 -1.00186,-0.50056 -5.36607,-0.50056 h -5.36608 l -0.20423,-1.02116 c -0.19981,-0.99907 -0.26721,-1.02606 -3.11607,-1.24786 -2.84821,-0.22174 -9.87612,-0.32089 -9.87612,-0.13933 0,0.0504 0.14949,0.6129 0.33221,1.25 l 0.33221,1.15835 h -4.83521 -4.83522 l 0.24023,0.98215 c 1.64953,6.74378 28.25255,101.76695 28.54474,101.95881 0.21979,0.14432 2.11009,0.26485 4.20068,0.26786 3.06344,0.004 3.8414,0.11053 4.00882,0.54685 0.15615,0.40691 0.54264,0.48964 1.55607,0.33306 0.74158,-0.11458 2.15189,-0.3192 3.13404,-0.45471 z m -20.17857,-1.13935 c 0,-0.29754 -25.14112,-82.27666 -30.03629,-97.9411 l -1.423,-4.55357 h -6.59179 c -3.62548,0 -6.59178,0.13569 -6.59178,0.30153 0,0.16584 7.5402,23.18816 16.75599,51.16071 l 16.75599,50.85919 1.19044,0.22084 c 2.07014,0.38404 9.94044,0.34635 9.94044,-0.0476 z m 6.06443,-0.61967 c -0.17984,-0.54018 -6.52868,-23.40178 -14.10854,-50.80357 -7.57985,-27.40178 -13.86375,-50.10268 -13.96422,-50.44643 -0.1609,-0.55051 -0.6951,-0.625 -4.48252,-0.625 -3.28306,0 -4.26383,0.10557 -4.14748,0.44643 0.0838,0.24554 7.2031,23.38839 15.82063,51.42857 l 15.66824,50.98215 h 2.77043 2.77044 z m -24.08581,-0.35714 c -0.99477,-4.04279 -11.8583,-32.26098 -25.74574,-66.875 -13.06246,-32.55778 -13.79229,-34.34535 -13.95587,-34.18178 -0.14996,0.14996 10.99816,101.06661 11.19136,101.30818 0.11361,0.14204 12.67601,0.48181 24.69534,0.66793 l 4.05658,0.0628 z m 6.03335,0.17857 c -0.96319,-3.0904 -33.43513,-101.52435 -33.51913,-101.60835 -0.0584,-0.0584 -2.66992,-0.062 -5.80328,-0.008 l -5.69702,0.0984 7.44405,18.39286 c 13.52743,33.42369 26.59733,66.8503 30.68645,78.48134 l 1.91267,5.4404 2.61335,0.004 c 2.54689,0.003 2.60699,-0.017 2.36291,-0.80016 z"
                   style="fill:#800080;stroke-width:0.357143" />
              </g>
            </g>
          </g>
        </g>
      </g>
    </g>
  </g>
</svg>
